<svg width="16" height="16" viewBox="0 0 16 16" fill="none" xmlns="http://www.w3.org/2000/svg">
<path fill-rule="evenodd" clip-rule="evenodd" d="M0.929124 13.6569C0.538599 14.0474 0.538599 14.6806 0.929124 15.0711C1.31965 15.4616 1.95281 15.4616 2.34334 15.0711L8.0002 9.41426L13.6571 15.0711C14.0476 15.4616 14.6807 15.4616 15.0713 15.0711C15.4618 14.6806 15.4618 14.0474 15.0713 13.6569L9.41441 8.00005L15.0713 2.3432C15.4618 1.95268 15.4618 1.31951 15.0713 0.928986C14.6807 0.538462 14.0476 0.538462 13.657 0.928986L8.0002 6.58584L2.34335 0.928986C1.95282 0.538462 1.31966 0.538462 0.929133 0.928986C0.538609 1.31951 0.53861 1.95268 0.929133 2.3432L6.58598 8.00005L0.929124 13.6569Z" fill="white"/>
<path d="M0.929124 15.0711L1.28268 14.7176L1.28268 14.7176L0.929124 15.0711ZM0.929124 13.6569L1.28268 14.0105L1.28268 14.0105L0.929124 13.6569ZM2.34334 15.0711L1.98978 14.7176L1.98978 14.7176L2.34334 15.0711ZM8.0002 9.41426L8.35375 9.06071L8.0002 8.70716L7.64664 9.06071L8.0002 9.41426ZM13.6571 15.0711L13.3035 15.4247L13.3035 15.4247L13.6571 15.0711ZM9.41441 8.00005L9.06086 7.6465L8.7073 8.00005L9.06086 8.3536L9.41441 8.00005ZM15.0713 2.3432L14.7177 1.98965L15.0713 2.3432ZM15.0713 0.928986L14.7177 1.28254L14.7177 1.28254L15.0713 0.928986ZM13.657 0.928986L13.3035 0.575433L13.3035 0.575433L13.657 0.928986ZM8.0002 6.58584L7.64664 6.93939L8.0002 7.29294L8.35375 6.93939L8.0002 6.58584ZM2.34335 0.928986L2.6969 0.575433L2.6969 0.575433L2.34335 0.928986ZM0.929133 0.928986L0.57558 0.575433L0.57558 0.575433L0.929133 0.928986ZM0.929133 2.3432L1.28269 1.98965L0.929133 2.3432ZM6.58598 8.00005L6.93954 8.3536L7.29309 8.00005L6.93954 7.6465L6.58598 8.00005ZM1.28268 14.7176C1.08741 14.5223 1.08741 14.2057 1.28268 14.0105L0.57557 13.3034C-0.0102163 13.8891 -0.0102163 14.8389 0.57557 15.4247L1.28268 14.7176ZM1.98978 14.7176C1.79452 14.9128 1.47794 14.9128 1.28268 14.7176L0.57557 15.4247C1.16136 16.0105 2.1111 16.0105 2.69689 15.4247L1.98978 14.7176ZM7.64664 9.06071L1.98978 14.7176L2.69689 15.4247L8.35375 9.76782L7.64664 9.06071ZM7.64664 9.76782L13.3035 15.4247L14.0106 14.7176L8.35375 9.06071L7.64664 9.76782ZM13.3035 15.4247C13.8893 16.0105 14.839 16.0105 15.4248 15.4247L14.7177 14.7176C14.5225 14.9128 14.2059 14.9128 14.0106 14.7176L13.3035 15.4247ZM15.4248 15.4247C16.0106 14.8389 16.0106 13.8891 15.4248 13.3034L14.7177 14.0105C14.913 14.2057 14.913 14.5223 14.7177 14.7176L15.4248 15.4247ZM15.4248 13.3034L9.76796 7.6465L9.06086 8.3536L14.7177 14.0105L15.4248 13.3034ZM14.7177 1.98965L9.06086 7.6465L9.76796 8.3536L15.4248 2.69675L14.7177 1.98965ZM14.7177 1.28254C14.913 1.4778 14.913 1.79438 14.7177 1.98965L15.4248 2.69675C16.0106 2.11097 16.0106 1.16122 15.4248 0.575432L14.7177 1.28254ZM14.0106 1.28254C14.2059 1.08728 14.5224 1.08728 14.7177 1.28254L15.4248 0.575433C14.839 -0.0103541 13.8893 -0.0103532 13.3035 0.575433L14.0106 1.28254ZM8.35375 6.93939L14.0106 1.28254L13.3035 0.575433L7.64664 6.23228L8.35375 6.93939ZM8.35375 6.23228L2.6969 0.575433L1.98979 1.28254L7.64664 6.93939L8.35375 6.23228ZM2.6969 0.575433C2.11111 -0.0103533 1.16137 -0.010354 0.57558 0.575433L1.28269 1.28254C1.47795 1.08728 1.79453 1.08728 1.98979 1.28254L2.6969 0.575433ZM0.57558 0.575433C-0.0102065 1.16122 -0.0102059 2.11097 0.57558 2.69675L1.28269 1.98965C1.08742 1.79438 1.08742 1.4778 1.28269 1.28254L0.57558 0.575433ZM0.57558 2.69675L6.23243 8.3536L6.93954 7.6465L1.28269 1.98965L0.57558 2.69675ZM1.28268 14.0105L6.93954 8.3536L6.23243 7.6465L0.57557 13.3034L1.28268 14.0105Z" fill="white"/>
</svg>
